<svg xmlns="http://www.w3.org/2000/svg" width="410" height="404" viewBox="0 0 410 404"><defs><linearGradient id="a" x1="54.2%" x2="48%" y1="0%" y2="100%"><stop stop-color="#41D1FF" offset="0%"/><stop stop-color="#BD34FE" offset="100%"/></linearGradient><linearGradient id="b" x1="0%" x2="74%" y1="0%" y2="100%"><stop stop-color="#FFEA83" offset="0%"/><stop stop-color="#FFA800" offset="8.33%"/><stop stop-color="#FF1E56" offset="100%"/></linearGradient></defs><path fill="url(#a)" d="M399 57L228 388c-4 8-15 1-12-6l35-91L113 59c-7-7 1-18 10-14l219 102 52-63c6-7 17 1 12 9z"/><path fill="url(#b)" d="M234 249L113 59c-7-7 1-18 10-14l219 102-108 102z"/><path fill="#fff" d="M268 92l-41 107-28-58 69-49z"/></svg>
